<?xml version="1.0" encoding="UTF-8" standalone="no"?>
<svg
   height="16px"
   viewBox="0 0 16 16"
   width="16px"
   version="1.1"
   id="svg1"
   sodipodi:docname="play-table-symbolic.svg"
   inkscape:version="1.4.2 (ebf0e940d0, 2025-05-08)"
   xmlns:inkscape="http://www.inkscape.org/namespaces/inkscape"
   xmlns:sodipodi="http://sodipodi.sourceforge.net/DTD/sodipodi-0.dtd"
   xmlns="http://www.w3.org/2000/svg"
   xmlns:svg="http://www.w3.org/2000/svg">
  <defs
     id="defs1" />
  <sodipodi:namedview
     id="namedview1"
     pagecolor="#505050"
     bordercolor="#eeeeee"
     borderopacity="1"
     inkscape:showpageshadow="0"
     inkscape:pageopacity="0"
     inkscape:pagecheckerboard="0"
     inkscape:deskcolor="#d1d1d1"
     inkscape:zoom="35.266951"
     inkscape:cx="6.1105368"
     inkscape:cy="6.5500418"
     inkscape:window-width="1920"
     inkscape:window-height="1009"
     inkscape:window-x="1440"
     inkscape:window-y="32"
     inkscape:window-maximized="1"
     inkscape:current-layer="svg1" />
  <path
     d="m 0.5151842,1.4838458 v 7.859376 c 0,1.0703122 0.90625,1.0664062 0.90625,1.0664062 h 0.09375 c 0.171875,0 0.347656,-0.03906 0.5,-0.125 l 7,-4.0000002 c 0.308594,-0.171875 0.46875,-0.523438 0.46875,-0.875 0,-0.351563 -0.160156,-0.703125 -0.46875,-0.875 l -7,-3.99999997 c -0.152344,-0.085938 -0.328125,-0.125 -0.5,-0.125 h -0.09375 c 0,0 -0.90625,0 -0.90625,1.07421797 z m 0,0"
     fill="#222222"
     id="path1" />
  <g
     fill="#222222"
     id="g4"
     transform="matrix(0.56472093,0,0,0.56472093,7.2380952,7.1181585)"
     style="stroke-width:1.77079">
    <path
       d="M 3.03125,1 C 1.363281,1 0,2.363281 0,4.03125 v 7.9375 C 0,13.636719 1.363281,15 3.03125,15 h 9 c 1.667969,0 3.03125,-1.363281 3.03125,-3.03125 V 4.03125 C 15.0625,2.363281 13.699219,1 12.03125,1 Z m 4,1 h 1 v 2 h -1 z M 2,5 h 11.0625 v 6.96875 C 13.0625,12.566406 12.625,13 12.03125,13 h -9 C 2.433594,13 2,12.566406 2,11.96875 Z m 0,0"
       id="path1-3"
       style="stroke-width:1.77079" />
    <path
       d="M 6.929688,5 H 8.03125 v 9 H 6.929688 Z m 0,0"
       id="path2"
       style="stroke-width:1.77079" />
    <path
       d="m 1.03125,7 h 13 v 1 h -13 z m 0,0"
       id="path3"
       style="stroke-width:1.77079" />
    <path
       d="m 1.03125,10 h 13 v 1 h -13 z m 0,0"
       id="path4"
       style="stroke-width:1.77079" />
  </g>
</svg>
